<?xml version="1.0" encoding="utf-8"?>
<!-- Generator: Adobe Illustrator 19.1.0, SVG Export Plug-In . SVG Version: 6.00 Build 0)  -->
<svg version="1.1" id="Layer_1" xmlns="http://www.w3.org/2000/svg" xmlns:xlink="http://www.w3.org/1999/xlink" x="0px" y="0px"
	 viewBox="0 0 113.4 38.5" style="enable-background:new 0 0 113.4 38.5;" xml:space="preserve">
<style type="text/css">
	.st0{fill:#FFFFFF;}
	.st1{fill:#FC421D;}
</style>
<g>
	<path class="st0" d="M59.8,22.9c0,1.6-0.3,3-0.8,4.4c-0.5,1.3-1.3,2.5-2.3,3.5c-1,1-2.2,1.7-3.6,2.3c-1.4,0.5-2.9,0.8-4.6,0.8h-7.6
		V12h7.6c1.7,0,3.2,0.3,4.6,0.8c1.4,0.5,2.6,1.3,3.6,2.3c1,1,1.8,2.1,2.3,3.5C59.5,19.9,59.8,21.3,59.8,22.9z M54.6,22.9
		c0-1.1-0.1-2.1-0.4-2.9c-0.3-0.9-0.7-1.6-1.2-2.2c-0.5-0.6-1.2-1.1-1.9-1.4c-0.8-0.3-1.6-0.5-2.6-0.5H46v14h2.5
		c1,0,1.8-0.2,2.6-0.5c0.8-0.3,1.4-0.8,1.9-1.4c0.5-0.6,0.9-1.3,1.2-2.2C54.4,24.9,54.6,24,54.6,22.9z"/>
	<path class="st0" d="M61.9,33.8V18.3h2.8c0.2,0,0.4,0,0.6,0.1c0.2,0,0.3,0.1,0.4,0.2c0.1,0.1,0.2,0.2,0.2,0.3
		c0.1,0.1,0.1,0.3,0.1,0.5l0.3,1.5c0.6-0.9,1.2-1.6,1.9-2.1c0.7-0.5,1.5-0.8,2.3-0.8c0.7,0,1.3,0.2,1.7,0.5l-0.6,3.4
		c0,0.2-0.1,0.4-0.2,0.4c-0.1,0.1-0.3,0.1-0.5,0.1c-0.2,0-0.4,0-0.6-0.1c-0.2,0-0.5-0.1-0.9-0.1c-1.2,0-2.2,0.6-2.9,1.9v9.5H61.9z"
		/>
	<path class="st0" d="M79.2,18.3v9.9c0,0.8,0.2,1.4,0.5,1.8c0.3,0.4,0.9,0.6,1.5,0.6c0.5,0,1-0.1,1.4-0.3c0.4-0.2,0.9-0.5,1.3-0.9
		V18.3h4.6v15.5h-2.9c-0.6,0-1-0.3-1.1-0.8l-0.3-0.9c-0.3,0.3-0.6,0.6-0.9,0.8s-0.7,0.4-1,0.6c-0.4,0.2-0.8,0.3-1.2,0.4
		C80.8,34,80.4,34,79.9,34c-0.8,0-1.6-0.1-2.3-0.4c-0.7-0.3-1.2-0.7-1.7-1.2c-0.4-0.5-0.8-1.2-1-1.9c-0.2-0.7-0.3-1.5-0.3-2.4v-9.9
		H79.2z"/>
	<path class="st0" d="M96.2,18.3v15.5h-4.6V18.3H96.2z"/>
	<path class="st0" d="M110.5,33.8c-0.3,0-0.5-0.1-0.7-0.2c-0.2-0.1-0.3-0.3-0.4-0.6l-0.4-1.2c-0.3,0.3-0.6,0.6-1,0.9
		c-0.3,0.3-0.7,0.5-1.1,0.7c-0.4,0.2-0.8,0.3-1.3,0.4c-0.5,0.1-0.9,0.2-1.5,0.2c-0.8,0-1.6-0.2-2.2-0.5c-0.7-0.4-1.3-0.9-1.8-1.6
		c-0.5-0.7-0.9-1.5-1.2-2.5c-0.3-1-0.4-2.1-0.4-3.4c0-1.2,0.2-2.2,0.5-3.2c0.3-1,0.8-1.9,1.4-2.6c0.6-0.7,1.3-1.3,2.1-1.7
		c0.8-0.4,1.7-0.6,2.7-0.6c0.8,0,1.5,0.1,2,0.4c0.6,0.2,1.1,0.5,1.5,0.9v-7.9h4.6v22.4H110.5z M105.8,30.5c0.3,0,0.6,0,0.9-0.1
		c0.3-0.1,0.5-0.2,0.8-0.3c0.2-0.1,0.4-0.3,0.7-0.4c0.2-0.2,0.4-0.4,0.6-0.6v-6.6c-0.4-0.4-0.7-0.7-1.1-0.8
		c-0.4-0.2-0.8-0.2-1.3-0.2c-0.4,0-0.8,0.1-1.2,0.3c-0.4,0.2-0.7,0.4-0.9,0.8c-0.3,0.4-0.5,0.9-0.6,1.5c-0.1,0.6-0.2,1.3-0.2,2.2
		c0,0.8,0.1,1.5,0.2,2.1c0.1,0.6,0.3,1,0.5,1.4c0.2,0.3,0.5,0.6,0.8,0.7C105.1,30.4,105.4,30.5,105.8,30.5z"/>
	<path class="st1" d="M21.3,8.4C18.5,5.6,15.9,3,15.1,0c-0.8,3-3.4,5.6-6.2,8.4C4.7,12.6,0,17.3,0,24.3c0,6.5,4.1,12,9.9,14.2
		c1.4-4.5,3.5-11.5,3.6-14.4c0-0.7-0.4-0.4-0.5-0.3L12.9,24c0,0-2.9,9.2-3.3,10c-0.2,0.5-0.5-0.1-0.5-0.1L8.2,22.4
		c0,0-0.1-0.1-0.1-0.1c-0.4-0.1-1.3-0.4-1.5-0.6C6.4,21.5,6,21.4,6,21.3c-0.1-0.1,0-0.2,0-0.2s-0.2-0.1,0-0.2
		c-0.2-0.2,0.1-0.2,0.2-0.2c-0.1-0.2,0.2-0.2,0.2-0.2s0.5,0.1,0.9,0.2c-0.1-0.1,0.1-0.3,0.2-0.2c0.2,0,0.8,0.2,1.4,0.9l1-0.2
		c0,0,1.2-4.6,3.3-4.8c-0.4-2.1,0.6-3.6,0.9-3.8c0.2-0.2,1-0.6,1.3-0.8c0.4,0.4,2,1.5,3.1,3.3c0.1,0.2-0.1,0.3-0.3,0.1
		c-0.3-0.3-0.8-0.7-0.9-0.6c-0.2,0.3,1.2,1.7,0.8,2.4c2.7,1.4,3.1,5.5,3.7,5.9c0.2,0.2,0.5,0.4,0.6,0.6c0.2-0.2,0.5-0.5,0.7-0.7
		c0.1-0.1,0.5-0.2,0.5-0.2l0,0c0,0,0,0,0,0l0,0c0.1-0.1,0.3-0.3,0.4-0.4c0.1-0.1,0.1,0,0.1,0s0.2,0,0.2,0.1c0.1,0,0.1,0.1,0,0.3
		c0.1,0,0,0.2,0,0.2s-0.1,0.3-0.2,0.5c-0.1,0.1-0.3,0.4-0.5,0.6c-0.2,0.1-0.5,0.2-0.9,0.3l-1.4,9c0,0-0.5,0.8-0.5-0.1
		c-0.1-3.1-1.9-8.4-1.9-8.4s-0.5-0.6-0.4,0c0.6,2.4,1.2,9.4,1.6,13.8c5.7-2.2,9.8-7.7,9.8-14.1C30.2,17.3,25.5,12.6,21.3,8.4z
		 M23.9,20.6C23.8,20.7,23.9,20.6,23.9,20.6C23.9,20.6,23.9,20.6,23.9,20.6L23.9,20.6C23.9,20.6,23.9,20.6,23.9,20.6
		C23.9,20.7,23.9,20.6,23.9,20.6z"/>
	<path class="st0" d="M96.7,13.7c0,0.4-0.1,0.7-0.2,1c-0.1,0.3-0.4,0.6-0.6,0.9c-0.3,0.2-0.6,0.4-0.9,0.6c-0.3,0.1-0.7,0.2-1.1,0.2
		c-0.4,0-0.7-0.1-1.1-0.2c-0.3-0.1-0.6-0.3-0.9-0.6c-0.3-0.2-0.5-0.5-0.6-0.9c-0.1-0.3-0.2-0.7-0.2-1c0-0.4,0.1-0.7,0.2-1.1
		c0.1-0.3,0.3-0.6,0.6-0.9c0.3-0.2,0.5-0.4,0.9-0.6c0.3-0.1,0.7-0.2,1.1-0.2c0.4,0,0.8,0.1,1.1,0.2c0.3,0.1,0.6,0.3,0.9,0.6
		c0.3,0.2,0.5,0.5,0.6,0.9C96.6,12.9,96.7,13.3,96.7,13.7z"/>
</g>
</svg>
