<?xml version="1.0" encoding="UTF-8" standalone="no"?>
<svg
   xmlns:dc="http://purl.org/dc/elements/1.1/"
   xmlns:cc="http://creativecommons.org/ns#"
   xmlns:rdf="http://www.w3.org/1999/02/22-rdf-syntax-ns#"
   xmlns:svg="http://www.w3.org/2000/svg"
   xmlns="http://www.w3.org/2000/svg"
   viewBox="0 0 711.47998 317.18668"
   height="317.18668"
   width="711.47998"
   xml:space="preserve"
   id="svg2"
   version="1.1"><metadata
     id="metadata8"><rdf:RDF><cc:Work
         rdf:about=""><dc:format>image/svg+xml</dc:format><dc:type
           rdf:resource="http://purl.org/dc/dcmitype/StillImage" /></cc:Work></rdf:RDF></metadata><defs
     id="defs6"><clipPath
       id="clipPath20"
       clipPathUnits="userSpaceOnUse"><path
         id="path18"
         d="M 0,0 H 5336 V 2378.88 H 0 Z" /></clipPath></defs><g
     transform="matrix(1.3333333,0,0,-1.3333333,0,317.18667)"
     id="g10"><g
       transform="scale(0.1)"
       id="g12"><g
         id="g14"><g
           clip-path="url(#clipPath20)"
           id="g16"><path
             id="path22"
             style="fill:#fff200;fill-opacity:1;fill-rule:nonzero;stroke:none"
             d="m 4160.18,797.23 c 0,-215.769 -46.29,-420.66 -129.47,-606.449 H 1212.9 c -83.24,185.789 -129.53,390.68 -129.53,606.449 0,832.59 688.79,1507.82 1538.55,1507.82 849.49,0 1538.26,-675.23 1538.26,-1507.82" /><path
             id="path24"
             style="fill:#ffffff;fill-opacity:1;fill-rule:nonzero;stroke:none"
             d="m 2653.19,2378.88 c -924.22,0 -1673.327,-737.86 -1673.327,-1648.29 0,-189.11 32.417,-370.57 92.157,-539.809 h 168.49 c -81.7,183.278 -127.14,385.399 -127.14,598.27 0,491.339 242,927.059 614.98,1197.929 -17.36,-21.84 -29.57,-47.62 -33.87,-75.02 -12.12,-77.4 39.8,-139.64 116.51,-139.64 76.67,0 148.13,62.24 160.29,139.64 11.85,75.74 -39.78,139.7 -116.41,139.7 -13.18,0 -26.19,-2.01 -38.81,-5.52 233.56,145.86 510.5,230.39 807.52,230.39 833.85,0 1509.93,-666.12 1509.93,-1487.479 0,-212.871 -45.44,-414.992 -127.09,-598.27 h 227.66 c 59.71,169.239 92.17,350.699 92.17,539.809 0,910.43 -749.13,1648.29 -1673.06,1648.29" /><path
             id="path26"
             style="fill:#ed1c24;fill-opacity:1;fill-rule:nonzero;stroke:none"
             d="m 1536.88,874.301 h 79.69 c 13.72,0 25.43,9.871 27.72,23.379 l 36.94,216.04 h 205.84 L 1851.7,907.16 c -1.42,-8.172 0.88,-16.531 6.19,-22.859 5.33,-6.352 13.22,-10 21.49,-10 h 79.11 c 13.64,0 25.3,9.789 27.7,23.211 L 2083.4,1447 c 1.46,8.19 -0.82,16.59 -6.15,22.96 -5.34,6.38 -13.23,10.06 -21.55,10.06 h -79 c -13.61,0 -25.27,-9.75 -27.68,-23.13 l -40.18,-222.86 h -205.87 l 37.97,211.15 c 0.54,2.14 0.84,4.42 0.84,6.71 0,15.54 -12.56,28.13 -28.06,28.13 h -79.73 c -13.63,0 -25.32,-9.8 -27.67,-23.23 l -97.14,-549.462 c -1.46,-8.207 0.82,-16.609 6.15,-22.969 5.34,-6.39 13.22,-10.058 21.55,-10.058" /><path
             id="path28"
             style="fill:#ed1c24;fill-opacity:1;fill-rule:nonzero;stroke:none"
             d="m 2280.29,1163.77 c 14.58,0 26.19,-4.53 34.54,-13.5 10.4,-11.14 15.56,-28.75 14.68,-49.89 h -124.44 c 9.56,25.67 31.2,63.39 75.22,63.39 z m -27.81,-299.282 c 55.88,0 104.5,14.782 148.57,45.282 12.5,8.64 15.88,25.691 7.59,38.441 l -14.95,22.98 c -5.35,8.27 -14.37,12.797 -23.59,12.797 -4.87,0 -9.81,-1.277 -14.28,-3.929 -27.89,-16.52 -60.2,-25.598 -90.99,-25.598 -56.23,0 -70.08,40.609 -71.78,74.969 v 2.36 h 216.28 c 14.08,0 26.02,10.43 27.87,24.4 1.65,12.5 2.49,26.45 2.49,41.48 0,89.92 -62.4,150.34 -155.34,150.34 -127.23,0 -205.99,-114.67 -205.99,-220.91 0,-101.819 65.1,-162.612 174.12,-162.612" /><path
             id="path30"
             style="fill:#ed1c24;fill-opacity:1;fill-rule:nonzero;stroke:none"
             d="m 2495.82,874.301 h 69.97 c 13.63,0 25.29,9.801 27.65,23.23 l 97.11,549.489 c 1.43,8.17 -0.79,16.58 -6.12,22.94 -5.34,6.38 -13.24,10.06 -21.54,10.06 h -69.95 c -13.63,0 -25.27,-9.8 -27.7,-23.23 l -97.09,-549.501 c -1.48,-8.168 0.8,-16.57 6.15,-22.93 5.34,-6.39 13.22,-10.058 21.52,-10.058" /><path
             id="path32"
             style="fill:#ed1c24;fill-opacity:1;fill-rule:nonzero;stroke:none"
             d="m 2791.18,897.488 28.43,159.582 c 8.89,46.82 41.23,83.7 73.52,83.7 10.96,0 19.07,-3.02 24.09,-9.03 7.61,-9.06 9.35,-25.85 5.14,-49.88 l -30.98,-174.532 c -1.43,-8.207 0.81,-16.609 6.15,-22.969 5.37,-6.39 13.25,-10.058 21.57,-10.058 h 69.15 c 13.61,0 25.3,9.789 27.67,23.187 l 28.33,159.292 c 8.18,46.34 40.79,83.99 72.71,83.99 11.41,0 19.81,-3.13 24.98,-9.27 7.58,-9.09 9.31,-25.77 5.09,-49.66 l -31.6,-174.418 c -1.49,-8.192 0.72,-16.641 6.08,-23.031 5.34,-6.403 13.24,-10.09 21.59,-10.09 h 69.76 c 13.65,0 25.35,9.801 27.7,23.258 l 35.75,203.691 c 8.79,48.46 2.22,87.56 -18.98,112.93 -18.74,22.43 -47.75,33.83 -86.27,33.83 -55.48,0 -100.02,-36.17 -123.87,-60.69 -10.17,28.97 -35.5,60.69 -97.46,60.69 -45.85,0 -77.69,-22.64 -104.65,-48.96 l 0.77,4.84 c 0.44,1.98 0.7,4.04 0.7,6.16 0,15.53 -12.56,28.12 -28.08,28.12 h -69.54 c -13.66,0 -25.32,-9.81 -27.69,-23.27 l -53.83,-307.63 c -1.44,-8.2 0.86,-16.571 6.17,-22.95 5.36,-6.351 13.22,-10.019 21.52,-10.019 h 68.43 c 13.61,0 25.27,9.789 27.65,23.187" /><path
             id="path34"
             style="fill:#ed1c24;fill-opacity:1;fill-rule:nonzero;stroke:none"
             d="m 3410.36,1298.21 h 71.59 c 13.66,0 25.35,9.81 27.67,23.26 l 11.21,64.12 c 1.44,8.18 -0.83,16.56 -6.18,22.92 -5.32,6.35 -13.21,10.03 -21.5,10.03 h -71.65 c -13.66,0 -25.37,-9.83 -27.7,-23.31 l -11.13,-64.1 c -1.43,-8.18 0.81,-16.55 6.14,-22.91 5.39,-6.33 13.25,-10.01 21.55,-10.01" /><path
             id="path36"
             style="fill:#ed1c24;fill-opacity:1;fill-rule:nonzero;stroke:none"
             d="m 3481.9,1228.14 c -5.33,6.36 -13.21,10.03 -21.51,10.03 h -69.92 c -13.66,0 -25.38,-9.81 -27.7,-23.27 l -53.83,-307.63 c -1.43,-8.2 0.82,-16.571 6.2,-22.95 5.32,-6.351 13.22,-10.019 21.5,-10.019 h 69.92 c 13.68,0 25.37,9.808 27.71,23.258 l 53.81,307.651 c 1.43,8.18 -0.82,16.58 -6.18,22.93" /><path
             id="path38"
             style="fill:#ed1c24;fill-opacity:1;fill-rule:nonzero;stroke:none"
             d="m 477.973,1221.86 c -216.391,0 -367.512,-128.37 -367.512,-312.192 0,-104.469 55.121,-178.09 184.324,-246.09 78.582,-43.277 153.297,-84.418 153.297,-158.808 0,-66.7 -54.523,-109.809 -138.922,-109.809 -61.715,0 -124.633,23.117 -177.207,65.117 -5.16,4.152 -11.387,6.172 -17.515,6.172 -8.204,0 -16.231,-3.531 -21.8091,-10.352 L 6.32812,350.18 c -4.74218,-5.809 -6.964839,-13.27 -6.17187,-20.739 0.792969,-7.461 4.54297,-14.3 10.37105,-19 74.7813,-59.812 171.7027,-90.179 288.1097,-90.179 211.476,0 364.941,137.429 364.941,326.738 0,140.961 -101.586,212.051 -200.949,262.941 -85.676,43.469 -135.281,78.848 -135.281,131.36 0,50.551 34.043,104.559 129.55,104.559 50.055,0 100.305,-16.75 145.313,-48.399 4.918,-3.449 10.555,-5.109 16.156,-5.109 8.504,0 16.852,3.808 22.391,11.048 l 84.777,111.07 c 4.676,6.14 6.653,13.91 5.442,21.52 -1.235,7.61 -5.508,14.38 -11.911,18.75 -66.902,45.79 -143.558,67.12 -241.093,67.12" /><path
             id="path40"
             style="fill:#ed1c24;fill-opacity:1;fill-rule:nonzero;stroke:none"
             d="M 973.887,817 H 831.145 c -13.688,0 -25.379,-9.809 -27.7,-23.27 L 711.816,269.07 c -1.457,-8.191 0.817,-16.59 6.153,-22.941 5.359,-6.359 13.215,-10.02 21.519,-10.02 h 142.77 c 13.66,0 25.347,9.813 27.691,23.27 l 91.631,524.672 c 1.43,8.179 -0.81,16.578 -6.15,22.937 C 990.094,813.34 982.188,817 973.887,817" /><path
             id="path42"
             style="fill:#ed1c24;fill-opacity:1;fill-rule:nonzero;stroke:none"
             d="m 1048.25,1097.1 c -5.33,6.33 -13.24,10 -21.52,10 H 881.27 c -13.665,0 -25.348,-9.82 -27.696,-23.29 L 830.426,950.879 c -1.406,-8.18 0.863,-16.559 6.199,-22.91 5.34,-6.348 13.219,-10.02 21.52,-10.02 h 145.435 c 13.69,0 25.38,9.832 27.7,23.313 l 23.15,132.918 c 1.42,8.18 -0.84,16.56 -6.18,22.92" /><path
             id="path44"
             style="fill:#ed1c24;fill-opacity:1;fill-rule:nonzero;stroke:none"
             d="m 1823.36,832.82 c -90.48,0 -162.77,-60.332 -200.14,-99.5 -15.32,46.739 -54.97,99.5 -155.94,99.5 -75.58,0 -127.3,-38.832 -171.33,-82.75 l 5.19,32.649 c 0.45,1.972 0.72,4.031 0.72,6.172 0,15.539 -12.55,28.109 -28.09,28.109 h -142.01 c -13.66,0 -25.32,-9.809 -27.67,-23.27 l -91.6,-524.66 c -1.48,-8.191 0.81,-16.59 6.15,-22.941 5.33,-6.359 13.22,-10.02 21.52,-10.02 h 140.25 c 13.61,0 25.32,9.75 27.66,23.172 l 47.91,268.891 c 14.47,76.437 67.37,136.558 120.31,136.558 18.63,0 31.89,-5.019 40.62,-15.41 12.65,-15.129 15.56,-42.699 8.57,-81.898 l -52.87,-298.301 c -1.46,-8.172 0.82,-16.601 6.18,-22.961 5.33,-6.371 13.22,-10.051 21.51,-10.051 h 141.44 c 13.61,0 25.3,9.75 27.69,23.172 l 47.81,268.52 c 13.19,75.558 66.63,136.929 119.15,136.929 19.27,0 33.01,-5.14 41.85,-15.718 12.68,-15.09 15.54,-42.543 8.58,-81.66 l -54.01,-298.133 c -1.48,-8.18 0.72,-16.617 6.06,-23.028 5.38,-6.402 13.24,-10.082 21.58,-10.082 h 142.6 c 13.67,0 25.35,9.789 27.7,23.25 l 59.7,339.879 c 13.99,77.461 3.64,139.742 -30,179.981 -29.75,35.551 -75.83,53.601 -137.09,53.601" /><path
             id="path46"
             style="fill:#ed1c24;fill-opacity:1;fill-rule:nonzero;stroke:none"
             d="m 2283.78,495.961 c 16.61,102.519 78.33,176.668 146.87,176.668 41.06,0 90.05,-19.738 90.05,-113.777 0,-96 -64.8,-177.071 -141.51,-177.071 -56.87,0 -91.63,33.61 -104.42,62.778 z m 218.05,334.199 c -63.37,0 -118.44,-25.371 -172.45,-79.672 l 5.68,31.692 c 0.53,2.179 0.83,4.41 0.83,6.711 0,15.539 -12.56,28.109 -28.08,28.109 h -144.17 c -13.64,0 -25.32,-9.789 -27.7,-23.25 L 2002.17,32.9883 c -1.47,-8.1797 0.82,-16.5781 6.12,-22.9375 C 2013.65,3.67188 2021.52,0 2029.83,0 h 142.81 c 13.63,0 25.29,9.82031 27.67,23.2617 l 46.51,264.8863 c 27.01,-31.097 75.33,-65.238 157.37,-65.238 177.98,0 310.97,186.391 310.97,353.07 0,152.032 -85.74,254.18 -213.33,254.18" /><path
             id="path48"
             style="fill:#ed1c24;fill-opacity:1;fill-rule:nonzero;stroke:none"
             d="m 3385.7,817 h -142.84 c -13.64,0 -25.31,-9.762 -27.67,-23.172 l -47.88,-268.476 c -12.6,-73.043 -72.53,-136.973 -128.32,-136.973 -20.95,0 -36.79,6.211 -47.08,18.48 -13.77,16.379 -17.6,42.93 -11.32,78.922 l 52.55,296.457 c 0.51,2.121 0.78,4.364 0.78,6.653 0,15.539 -12.52,28.109 -28.06,28.109 h -144.1 c -13.64,0 -25.3,-9.789 -27.7,-23.23 L 2774.3,454.051 c -13.06,-75.633 -1.75,-137.172 32.69,-178.063 31.13,-36.957 78.6,-55.726 141.04,-55.726 64.31,0 124.56,27.808 179.26,82.648 l -5.49,-34.238 c -1.28,-8.121 1.05,-16.422 6.38,-22.711 5.33,-6.25 13.14,-9.852 21.4,-9.852 h 143.21 c 13.63,0 25.29,9.77 27.67,23.192 l 92.49,522.949 c 0.54,2.109 0.84,4.352 0.84,6.641 0,15.539 -12.54,28.109 -28.09,28.109" /><path
             id="path50"
             style="fill:#ed1c24;fill-opacity:1;fill-rule:nonzero;stroke:none"
             d="m 4054.97,817 h -148.98 c -7.48,0 -14.68,-2.949 -19.93,-8.301 l -188.99,-190.281 108.79,594.672 c 0.57,2.16 0.85,4.45 0.85,6.8 0,15.51 -12.53,28.12 -28.07,28.12 h -142.73 c -13.6,0 -25.26,-9.74 -27.65,-23.13 L 3435.93,269.191 c -1.47,-8.171 0.77,-16.589 6.08,-23 5.37,-6.402 13.26,-10.082 21.6,-10.082 h 142.64 c 13.64,0 25.3,9.75 27.66,23.172 l 22.51,126.297 58.85,53.902 86.27,-187.039 c 4.62,-9.961 14.6,-16.332 25.54,-16.332 h 160.12 c 9.54,0 18.43,4.832 23.62,12.832 5.16,8.008 5.92,18.09 2.02,26.797 L 3876.4,579.121 4074.41,768.59 c 8.27,7.91 10.92,20.121 6.67,30.769 -4.31,10.68 -14.63,17.641 -26.11,17.641" /><path
             id="path52"
             style="fill:#ed1c24;fill-opacity:1;fill-rule:nonzero;stroke:none"
             d="m 4744.83,799.359 c -4.3,10.68 -14.6,17.641 -26.11,17.641 h -148.95 c -7.51,0 -14.68,-2.949 -19.99,-8.301 l -188.96,-190.281 108.82,594.672 c 0.54,2.16 0.84,4.45 0.84,6.8 0,15.51 -12.55,28.12 -28.09,28.12 h -142.72 c -13.64,0 -25.28,-9.74 -27.67,-23.13 L 4099.67,269.191 c -1.47,-8.171 0.8,-16.589 6.12,-23 5.36,-6.402 13.26,-10.082 21.56,-10.082 H 4270 c 13.61,0 25.29,9.75 27.67,23.172 l 22.51,126.297 58.84,53.902 86.3,-187.039 c 4.57,-9.961 14.55,-16.332 25.51,-16.332 h 160.09 c 9.56,0 18.46,4.832 23.62,12.832 5.19,8.008 5.93,18.09 2.03,26.797 l -136.4,303.383 197.96,189.469 c 8.33,7.91 10.95,20.121 6.7,30.769" /><path
             id="path54"
             style="fill:#ed1c24;fill-opacity:1;fill-rule:nonzero;stroke:none"
             d="m 4918.04,408.5 c 0,55.109 63.13,96.66 146.86,96.66 h 49.69 l -14.81,-85.84 c -27.08,-32.23 -79.8,-65.261 -121.97,-65.261 -22.32,0 -59.77,7.089 -59.77,54.441 z m 386.45,355.52 c -36.53,43.308 -104.26,63.5 -213.28,63.5 -82.67,0 -162.04,-14.829 -229.54,-42.911 -13.07,-5.449 -20.06,-19.789 -16.26,-33.437 l 18.77,-67.981 c 2.08,-7.543 7.22,-13.91 14.18,-17.48 4.01,-2.109 8.46,-3.152 12.9,-3.152 3.25,0 6.45,0.55 9.57,1.679 46.92,16.953 98.1,25.571 152.1,25.571 52.23,0 67.67,-11.469 74.78,-20.047 8.8,-10.672 10.91,-26.571 6.55,-50.082 -0.09,-0.602 -0.19,-1.211 -0.27,-1.809 h -53.15 c -164.27,-1.172 -355.86,-65.332 -355.86,-242.32 0,-94.172 67.59,-152.641 176.37,-152.641 62.84,0 121.44,22.52 174.26,67 l -3.33,-21.39 c -1.24,-8.11 1.08,-16.348 6.45,-22.598 5.33,-6.231 13.14,-9.813 21.33,-9.813 h 142.04 c 13.67,0 25.33,9.789 27.69,23.25 l 60.98,347.621 c 12.2,70.161 3.58,121.5 -26.28,157.04" /></g></g></g></g></svg>